<svg width="48" height="48" viewBox="0 0 48 48" fill="none" xmlns="http://www.w3.org/2000/svg">
<path d="M32.3429 44C31.5902 43.9951 30.8693 43.6959 30.3343 43.1665L14.1455 27.0982C13.7222 26.6789 13.3862 26.1799 13.1569 25.63C12.9276 25.0802 12.8096 24.4903 12.8096 23.8945C12.8096 23.2988 12.9276 22.7089 13.1569 22.159C13.3862 21.6092 13.7222 21.1102 14.1455 20.6909L30.3243 4.66278C30.8779 4.20297 31.5839 3.96771 32.3026 4.00357C33.0214 4.03943 33.7005 4.34379 34.2055 4.85643C34.7106 5.36906 35.0048 6.05261 35.0299 6.77181C35.0551 7.49101 34.8094 8.19344 34.3414 8.74011L19.0564 23.9146L34.3715 39.0891C34.8965 39.6258 35.1906 40.3468 35.1906 41.0977C35.1906 41.8485 34.8965 42.5695 34.3715 43.1062C34.1112 43.3844 33.7973 43.607 33.4486 43.7606C33.1 43.9142 32.7238 43.9957 32.3429 44Z" fill="black"/>
</svg>
