<svg aria-hidden="true" style="position: absolute; width: 0; height: 0; overflow: hidden;" version="1.1"
    xmlns="http://www.w3.org/2000/svg"
    xmlns:xlink="http://www.w3.org/1999/xlink">
    <defs>
        <symbol id="chevron-left" viewBox="0 0 32 32">
            <path d="M21.562 29.333c-0.502-0.003-0.982-0.203-1.339-0.556l-10.793-10.712c-0.282-0.28-0.506-0.612-0.659-0.979s-0.232-0.76-0.232-1.157c0-0.397 0.079-0.79 0.232-1.157s0.377-0.699 0.659-0.979l10.786-10.685c0.369-0.307 0.84-0.463 1.319-0.439s0.932 0.227 1.269 0.569c0.337 0.342 0.533 0.797 0.55 1.277s-0.147 0.948-0.459 1.312l-10.19 10.116 10.21 10.116c0.35 0.358 0.546 0.838 0.546 1.339s-0.196 0.981-0.546 1.339c-0.174 0.185-0.383 0.334-0.615 0.436s-0.483 0.157-0.737 0.16z" fill="currentColor"></path>
        </symbol>
        <symbol id="chevron-right" viewBox="0 0 32 32">
            <path d="M10.547 29.333c-0.375-0.002-0.742-0.115-1.053-0.325s-0.553-0.507-0.695-0.855c-0.142-0.347-0.178-0.729-0.103-1.097s0.257-0.705 0.523-0.97l10.117-10.031-10.124-10.031c-0.202-0.168-0.367-0.376-0.485-0.611s-0.185-0.492-0.198-0.755c-0.013-0.263 0.028-0.525 0.122-0.771s0.237-0.469 0.422-0.656c0.184-0.187 0.406-0.334 0.65-0.431s0.506-0.143 0.769-0.134 0.521 0.073 0.758 0.187c0.237 0.114 0.447 0.276 0.618 0.476l10.721 10.608c0.28 0.277 0.502 0.607 0.653 0.97s0.23 0.753 0.23 1.147-0.078 0.784-0.23 1.147c-0.152 0.363-0.374 0.693-0.653 0.97l-10.701 10.622c-0.359 0.348-0.841 0.541-1.341 0.538z" fill="currentColor"></path>
        </symbol>
    </defs>
</svg>
